<?xml version="1.0" encoding="UTF-8"?> <svg xmlns="http://www.w3.org/2000/svg" width="191" height="72" fill="none"><path d="M24.632 37.263l-5.684-4.421m0 0s-5.9-5.444-8.211-9.474m8.21 9.474c-3.578.842-11.494 1.516-14.526-2.526m6.948-17.053c5.053-3.79 5.052-12 5.052-12m-5.052 12c-1.264 1.263-1.264 7.579-.632 10.105m.632-10.105c-1.264.21-3.916-.505-4.421-5.053m3.789 15.158c-1.895.21-6.442-.379-9.474-4.42m44.211 17.684l6.145-4.344m0 0s6.378-5.348 8.876-9.307m-8.876 9.307c3.869.827 12.426 1.49 15.704-2.482m-7.511-16.754C54.35 9.33 54.35 1.263 54.35 1.263m5.462 11.79c1.366 1.24 1.366 7.445.683 9.927m-.683-9.928c1.366.207 4.233-.496 4.78-4.963M60.495 22.98c2.048.207 6.964-.372 10.242-4.343M51.79 45.474c0-5.581-7.635-10.106-17.053-10.106-9.418 0-17.053 4.525-17.053 10.106m12.632 3.789c0-1.395-1.697-2.526-3.79-2.526s-3.79 1.131-3.79 2.526m25.264 0c0-1.395-1.697-2.526-3.79-2.526-2.092 0-3.789 1.131-3.789 2.526M25.263 66.948c0 2.092 2.262 3.789 5.053 3.789 2.79 0 5.052-1.697 5.052-3.79v-3.789m10.106 3.79c0 2.092-2.262 3.789-5.053 3.789-2.79 0-5.053-1.697-5.053-3.79v-3.789" stroke="#1A1A1A" stroke-width="2.526" stroke-linecap="round"></path><ellipse cx="35.368" cy="60" rx="3.789" ry="3.158" stroke="#1A1A1A" stroke-width="2.526" stroke-linecap="round"></ellipse><path d="M92.006 49.8c1.586 0 2.502-.943 2.502-2.61v-5.633h7.861v5.633c0 1.667.916 2.61 2.502 2.61 1.586 0 2.502-.943 2.502-2.61V32.082c0-1.668-.916-2.611-2.502-2.611-1.586 0-2.502.943-2.502 2.611v5.428h-7.861v-5.428c0-1.668-.916-2.611-2.502-2.611-1.586 0-2.516.943-2.516 2.611V47.19c0 1.667.93 2.61 2.516 2.61zm25.211.056c4.689 0 7.615-2.83 7.615-7.807 0-4.881-2.967-7.793-7.615-7.793-4.621 0-7.615 2.926-7.615 7.793 0 4.963 2.925 7.806 7.615 7.806zm0-3.555c-1.668 0-2.694-1.518-2.694-4.239 0-2.68 1.053-4.252 2.694-4.252 1.654 0 2.707 1.573 2.707 4.252 0 2.721-1.053 4.239-2.707 4.239zm11.922 3.514c1.476 0 2.42-.875 2.42-2.516v-5.81c0-1.696.478-2.434 2.146-2.475.902-.041 1.586-.246 2.037-.657.451-.396.684-.97.684-1.736 0-.875-.246-1.49-.725-1.846-.314-.26-.752-.382-1.299-.382-1.49 0-2.584 1.066-2.953 3.076h-.095v-.739c0-1.572-.93-2.433-2.284-2.433-1.408 0-2.365.861-2.365 2.42v10.582c0 1.64.943 2.516 2.434 2.516zm11.429-.315h5.496c5.948 0 9.461-3.678 9.461-9.98 0-6.29-3.5-9.749-9.461-9.749h-5.496c-1.586 0-2.515.957-2.515 2.626v14.478c0 1.668.929 2.625 2.515 2.625zm2.502-4.047V33.818h2.338c3.172 0 5.018 2.01 5.018 5.715 0 3.938-1.75 5.92-5.018 5.92h-2.338zm21.725 4.402c4.689 0 7.615-2.83 7.615-7.806 0-4.881-2.967-7.793-7.615-7.793-4.621 0-7.615 2.926-7.615 7.793 0 4.963 2.925 7.806 7.615 7.806zm0-3.554c-1.668 0-2.693-1.518-2.693-4.239 0-2.68 1.052-4.252 2.693-4.252 1.654 0 2.707 1.573 2.707 4.252 0 2.721-1.053 4.239-2.707 4.239zm16.461 8.804c5.086 0 7.957-2.296 7.957-6.33V36.731c0-1.669-.998-2.434-2.393-2.434-1.394 0-2.447.766-2.447 2.434v.505h-.096c-.67-1.668-2.297-2.843-4.457-2.843-3.8 0-5.988 2.652-5.988 7.314 0 4.512 2.256 7.26 5.92 7.26 2.187 0 3.91-1.08 4.498-2.652h.096v2.378c0 1.682-1.162 2.748-3.158 2.748-1.272-.013-2.311-.588-3.336-1.449a2.336 2.336 0 00-1.586-.588c-1.176 0-1.914.739-1.914 1.696 0 .396.082.806.314 1.216.916 1.545 3.268 2.776 6.59 2.79zm.328-9.57c-1.75 0-2.789-1.34-2.789-3.746 0-2.392 1.053-3.87 2.789-3.87 1.723 0 2.803 1.491 2.803 3.87 0 2.406-1.067 3.746-2.803 3.746z" fill="#1A1A1A"></path></svg> 